<svg width="32" height="32" viewBox="0 0 32 32" fill="none" xmlns="http://www.w3.org/2000/svg">
    <circle cx="16" cy="16" r="16" fill="#FAFAFA"/>
    <path fill-rule="evenodd" clip-rule="evenodd" d="M19.6896 10.33C21.7592 10.33 23.0827 12.3032 23.0827 12.3032C23.0827 12.3032 21.0638 13.3828 21.0638 15.7274C21.0638 18.5101 23.6 19.3195 23.6 19.3195C23.6 19.3195 21.5982 24 19.3504 24C18.0865 24 18.002 23.2834 16.3223 23.2834C14.8636 23.2834 14.3717 24 13.2605 24C11.1397 24 8.39999 19.4377 8.39999 15.7274C8.39999 11.8733 11.1738 10.33 12.9126 10.33C14.4396 10.33 15.0755 11.2154 16.3053 11.2154C17.3403 11.2154 18.1548 10.33 19.6896 10.33ZM19.3338 6.3999C19.6388 8.28892 17.9 10.6252 15.8221 10.5492C15.5166 8.14561 17.7561 6.52671 19.3338 6.3999Z" fill="#9B9B9B"/>
</svg>