<svg width="32" height="32" viewBox="0 0 32 32" fill="none" xmlns="http://www.w3.org/2000/svg">
    <g opacity="0.24">
        <path d="M0 16C0 24.8366 7.16344 32 16 32C24.8366 32 32 24.8366 32 16C32 7.16344 24.8366 0 16 0C7.16344 0 0 7.16344 0 16Z" fill="url(#paint0_radial_1253_6619)"/>
        <path d="M0 16C0 24.8366 7.16344 32 16 32C24.8366 32 32 24.8366 32 16C32 7.16344 24.8366 0 16 0C7.16344 0 0 7.16344 0 16Z" fill="url(#paint1_radial_1253_6619)"/>
        <path d="M0 16C0 24.8366 7.16344 32 16 32C24.8366 32 32 24.8366 32 16C32 7.16344 24.8366 0 16 0C7.16344 0 0 7.16344 0 16Z" fill="white" fill-opacity="0.2"/>
    </g>
    <path d="M22.6237 13.2686C22.6163 12.7088 22.5113 12.1545 22.3135 11.6306C22.142 11.1887 21.88 10.7874 21.5443 10.4522C21.2087 10.1171 20.8067 9.85559 20.364 9.68436C19.846 9.49022 19.2987 9.38525 18.7455 9.37391C18.0332 9.34212 17.8074 9.33325 15.9993 9.33325C14.1912 9.33325 13.9594 9.33325 13.2523 9.37391C12.6994 9.38533 12.1523 9.4903 11.6345 9.68436C11.1918 9.85548 10.7897 10.117 10.4541 10.4521C10.1184 10.7872 9.85644 11.1886 9.68504 11.6306C9.49019 12.1474 9.38526 12.6936 9.37481 13.2457C9.34297 13.9576 9.33334 14.183 9.33334 15.9881C9.33334 17.7932 9.33334 18.0238 9.37481 18.7305C9.38591 19.2834 9.49031 19.8289 9.68504 20.347C9.85672 20.7889 10.1188 21.1901 10.4546 21.5251C10.7905 21.8601 11.1926 22.1215 11.6353 22.2926C12.1517 22.4945 12.6988 22.607 13.2531 22.6252C13.9661 22.657 14.1919 22.6666 16 22.6666C17.8081 22.6666 18.0398 22.6666 18.7469 22.6252C19.3001 22.6143 19.8475 22.5096 20.3655 22.3155C20.808 22.144 21.2099 21.8824 21.5456 21.5474C21.8812 21.2123 22.1433 20.811 22.315 20.3692C22.5097 19.8518 22.6141 19.3063 22.6252 18.7526C22.6571 18.0415 22.6667 17.8161 22.6667 16.0103C22.6652 14.2052 22.6652 13.976 22.6237 13.2686ZM15.9948 19.4016C14.1038 19.4016 12.5719 17.8723 12.5719 15.9844C12.5719 14.0965 14.1038 12.5672 15.9948 12.5672C16.9026 12.5672 17.7733 12.9272 18.4152 13.5681C19.0571 14.2089 19.4178 15.0781 19.4178 15.9844C19.4178 16.8907 19.0571 17.7599 18.4152 18.4007C17.7733 19.0416 16.9026 19.4016 15.9948 19.4016ZM19.554 13.2376C19.4491 13.2377 19.3453 13.2172 19.2484 13.1771C19.1515 13.1371 19.0635 13.0784 18.9894 13.0044C18.9152 12.9304 18.8565 12.8425 18.8164 12.7458C18.7763 12.6491 18.7557 12.5454 18.7558 12.4408C18.7558 12.3362 18.7765 12.2326 18.8166 12.136C18.8566 12.0393 18.9154 11.9515 18.9895 11.8776C19.0636 11.8036 19.1515 11.745 19.2483 11.7049C19.3451 11.6649 19.4488 11.6443 19.5536 11.6443C19.6584 11.6443 19.7621 11.6649 19.8589 11.7049C19.9557 11.745 20.0437 11.8036 20.1177 11.8776C20.1918 11.9515 20.2506 12.0393 20.2907 12.136C20.3308 12.2326 20.3514 12.3362 20.3514 12.4408C20.3514 12.8813 19.9945 13.2376 19.554 13.2376Z" fill="url(#paint2_radial_1253_6619)"/>
    <path d="M22.6237 13.2686C22.6163 12.7088 22.5113 12.1545 22.3135 11.6306C22.142 11.1887 21.88 10.7874 21.5443 10.4522C21.2087 10.1171 20.8067 9.85559 20.364 9.68436C19.846 9.49022 19.2987 9.38525 18.7455 9.37391C18.0332 9.34212 17.8074 9.33325 15.9993 9.33325C14.1912 9.33325 13.9594 9.33325 13.2523 9.37391C12.6994 9.38533 12.1523 9.4903 11.6345 9.68436C11.1918 9.85548 10.7897 10.117 10.4541 10.4521C10.1184 10.7872 9.85644 11.1886 9.68504 11.6306C9.49019 12.1474 9.38526 12.6936 9.37481 13.2457C9.34297 13.9576 9.33334 14.183 9.33334 15.9881C9.33334 17.7932 9.33334 18.0238 9.37481 18.7305C9.38591 19.2834 9.49031 19.8289 9.68504 20.347C9.85672 20.7889 10.1188 21.1901 10.4546 21.5251C10.7905 21.8601 11.1926 22.1215 11.6353 22.2926C12.1517 22.4945 12.6988 22.607 13.2531 22.6252C13.9661 22.657 14.1919 22.6666 16 22.6666C17.8081 22.6666 18.0398 22.6666 18.7469 22.6252C19.3001 22.6143 19.8475 22.5096 20.3655 22.3155C20.808 22.144 21.2099 21.8824 21.5456 21.5474C21.8812 21.2123 22.1433 20.811 22.315 20.3692C22.5097 19.8518 22.6141 19.3063 22.6252 18.7526C22.6571 18.0415 22.6667 17.8161 22.6667 16.0103C22.6652 14.2052 22.6652 13.976 22.6237 13.2686ZM15.9948 19.4016C14.1038 19.4016 12.5719 17.8723 12.5719 15.9844C12.5719 14.0965 14.1038 12.5672 15.9948 12.5672C16.9026 12.5672 17.7733 12.9272 18.4152 13.5681C19.0571 14.2089 19.4178 15.0781 19.4178 15.9844C19.4178 16.8907 19.0571 17.7599 18.4152 18.4007C17.7733 19.0416 16.9026 19.4016 15.9948 19.4016ZM19.554 13.2376C19.4491 13.2377 19.3453 13.2172 19.2484 13.1771C19.1515 13.1371 19.0635 13.0784 18.9894 13.0044C18.9152 12.9304 18.8565 12.8425 18.8164 12.7458C18.7763 12.6491 18.7557 12.5454 18.7558 12.4408C18.7558 12.3362 18.7765 12.2326 18.8166 12.136C18.8566 12.0393 18.9154 11.9515 18.9895 11.8776C19.0636 11.8036 19.1515 11.745 19.2483 11.7049C19.3451 11.6649 19.4488 11.6443 19.5536 11.6443C19.6584 11.6443 19.7621 11.6649 19.8589 11.7049C19.9557 11.745 20.0437 11.8036 20.1177 11.8776C20.1918 11.9515 20.2506 12.0393 20.2907 12.136C20.3308 12.2326 20.3514 12.3362 20.3514 12.4408C20.3514 12.8813 19.9945 13.2376 19.554 13.2376Z" fill="url(#paint3_radial_1253_6619)"/>
    <path d="M15.9948 18.2042C17.2228 18.2042 18.2183 17.2103 18.2183 15.9844C18.2183 14.7585 17.2228 13.7646 15.9948 13.7646C14.7668 13.7646 13.7714 14.7585 13.7714 15.9844C13.7714 17.2103 14.7668 18.2042 15.9948 18.2042Z" fill="url(#paint4_radial_1253_6619)"/>
    <path d="M15.9948 18.2042C17.2228 18.2042 18.2183 17.2103 18.2183 15.9844C18.2183 14.7585 17.2228 13.7646 15.9948 13.7646C14.7668 13.7646 13.7714 14.7585 13.7714 15.9844C13.7714 17.2103 14.7668 18.2042 15.9948 18.2042Z" fill="url(#paint5_radial_1253_6619)"/>
    <defs>
        <radialGradient id="paint0_radial_1253_6619" cx="0" cy="0" r="1" gradientUnits="userSpaceOnUse" gradientTransform="translate(8.50004 34.4647) rotate(-90) scale(31.7144 29.4969)">
            <stop stop-color="#FFDD55"/>
            <stop offset="0.1" stop-color="#FFDD55"/>
            <stop offset="0.5" stop-color="#FF543E"/>
            <stop offset="1" stop-color="#C837AB"/>
        </radialGradient>
        <radialGradient id="paint1_radial_1253_6619" cx="0" cy="0" r="1" gradientUnits="userSpaceOnUse" gradientTransform="translate(-5.36017 2.30523) rotate(78.6806) scale(14.1765 58.4359)">
            <stop stop-color="#3771C8"/>
            <stop offset="0.128" stop-color="#3771C8"/>
            <stop offset="1" stop-color="#6600FF" stop-opacity="0"/>
        </radialGradient>
        <radialGradient id="paint2_radial_1253_6619" cx="0" cy="0" r="1" gradientUnits="userSpaceOnUse" gradientTransform="translate(12.875 23.6935) rotate(-90) scale(13.2143 12.2904)">
            <stop stop-color="#FFDD55"/>
            <stop offset="0.1" stop-color="#FFDD55"/>
            <stop offset="0.5" stop-color="#FF543E"/>
            <stop offset="1" stop-color="#C837AB"/>
        </radialGradient>
        <radialGradient id="paint3_radial_1253_6619" cx="0" cy="0" r="1" gradientUnits="userSpaceOnUse" gradientTransform="translate(7.09994 10.2938) rotate(78.6806) scale(5.90685 24.3483)">
            <stop stop-color="#3771C8"/>
            <stop offset="0.128" stop-color="#3771C8"/>
            <stop offset="1" stop-color="#6600FF" stop-opacity="0"/>
        </radialGradient>
        <radialGradient id="paint4_radial_1253_6619" cx="0" cy="0" r="1" gradientUnits="userSpaceOnUse" gradientTransform="translate(12.875 23.6935) rotate(-90) scale(13.2143 12.2904)">
            <stop stop-color="#FFDD55"/>
            <stop offset="0.1" stop-color="#FFDD55"/>
            <stop offset="0.5" stop-color="#FF543E"/>
            <stop offset="1" stop-color="#C837AB"/>
        </radialGradient>
        <radialGradient id="paint5_radial_1253_6619" cx="0" cy="0" r="1" gradientUnits="userSpaceOnUse" gradientTransform="translate(7.09994 10.2938) rotate(78.6806) scale(5.90685 24.3483)">
            <stop stop-color="#3771C8"/>
            <stop offset="0.128" stop-color="#3771C8"/>
            <stop offset="1" stop-color="#6600FF" stop-opacity="0"/>
        </radialGradient>
    </defs>
</svg>