<svg width="32" height="32" viewBox="0 0 32 32" fill="none" xmlns="http://www.w3.org/2000/svg">
    <path d="M0 16C0 24.8366 7.16344 32 16 32C24.8366 32 32 24.8366 32 16C32 7.16344 24.8366 0 16 0C7.16344 0 0 7.16344 0 16Z" fill="#0088CC" fill-opacity="0.24"/>
    <path d="M9.09992 15.0965C13.3949 13.2619 16.2589 12.0524 17.6919 11.4681C21.7834 9.79959 22.6335 9.50977 23.1877 9.50009C23.3095 9.49809 23.582 9.5277 23.7586 9.66813C23.9076 9.7867 23.9486 9.94688 23.9683 10.0593C23.9879 10.1717 24.0123 10.4278 23.9929 10.6279C23.7712 12.9119 22.8118 18.4546 22.3237 21.0127C22.1172 22.0951 21.7105 22.458 21.3168 22.4936C20.4613 22.5707 19.8116 21.9392 18.9829 21.4067C17.6862 20.5733 16.9537 20.0545 15.695 19.2414C14.2404 18.3016 15.1834 17.7851 16.0124 16.9409C16.2293 16.72 19.999 13.3584 20.0719 13.0534C20.0811 13.0153 20.0895 12.8731 20.0034 12.798C19.9172 12.723 19.7901 12.7486 19.6983 12.7691C19.5683 12.798 17.4968 14.1403 13.4839 16.7961C12.8959 17.192 12.3633 17.3848 11.8862 17.3747C11.3601 17.3636 10.3482 17.0831 9.59598 16.8434C8.67333 16.5493 7.94002 16.3939 8.00388 15.8945C8.03714 15.6344 8.40248 15.3684 9.09992 15.0965Z" fill="#0088CC"/>
</svg>