<svg width="32" height="32" viewBox="0 0 32 32" fill="none" xmlns="http://www.w3.org/2000/svg">
    <path d="M0 16C0 24.8366 7.16344 32 16 32C24.8366 32 32 24.8366 32 16C32 7.16344 24.8366 0 16 0C7.16344 0 0 7.16344 0 16Z" fill="#25D366" fill-opacity="0.24"/>
    <path d="M9.33599 22.6666L10.2373 19.3546C9.64341 18.3365 9.33139 17.1786 9.33332 15.9999C9.33332 12.3179 12.318 9.33325 16 9.33325C19.682 9.33325 22.6667 12.3179 22.6667 15.9999C22.6667 19.6819 19.682 22.6666 16 22.6666C14.8218 22.6685 13.6644 22.3567 12.6467 21.7633L9.33599 22.6666ZM13.594 12.8719C13.5079 12.8773 13.4238 12.8999 13.3467 12.9386C13.2743 12.9795 13.2083 13.0307 13.1507 13.0906C13.0707 13.1659 13.0253 13.2313 12.9767 13.2946C12.7303 13.6152 12.5977 14.0089 12.6 14.4133C12.6013 14.7399 12.6867 15.0579 12.82 15.3553C13.0927 15.9566 13.5413 16.5933 14.134 17.1833C14.2767 17.3253 14.416 17.4679 14.566 17.6006C15.3016 18.2482 16.1782 18.7153 17.126 18.9646L17.5053 19.0226C17.6287 19.0293 17.752 19.0199 17.876 19.0139C18.0701 19.0039 18.2597 18.9513 18.4313 18.8599C18.5186 18.8149 18.6038 18.766 18.6867 18.7133C18.6867 18.7133 18.7153 18.6946 18.77 18.6533C18.86 18.5866 18.9153 18.5393 18.99 18.4613C19.0453 18.4039 19.0933 18.3366 19.13 18.2599C19.182 18.1513 19.234 17.9439 19.2553 17.7713C19.2713 17.6393 19.2667 17.5673 19.2647 17.5226C19.262 17.4513 19.2027 17.3773 19.138 17.3459L18.75 17.1719C18.75 17.1719 18.17 16.9193 17.816 16.7579C17.7787 16.7416 17.7387 16.7324 17.698 16.7306C17.6524 16.7259 17.6063 16.731 17.5628 16.7456C17.5194 16.7602 17.4795 16.784 17.446 16.8153V16.8139C17.4427 16.8139 17.398 16.8519 16.916 17.4359C16.8883 17.4731 16.8502 17.5012 16.8065 17.5166C16.7628 17.5321 16.7155 17.5341 16.6707 17.5226C16.6272 17.511 16.5847 17.4963 16.5433 17.4786C16.4607 17.4439 16.432 17.4306 16.3753 17.4059L16.372 17.4046C15.9906 17.2381 15.6375 17.0131 15.3253 16.7379C15.2413 16.6646 15.1633 16.5846 15.0833 16.5073C14.821 16.2561 14.5925 15.9719 14.4033 15.6619L14.364 15.5986C14.3357 15.556 14.3129 15.5101 14.296 15.4619C14.2707 15.3639 14.3367 15.2853 14.3367 15.2853C14.3367 15.2853 14.4987 15.1079 14.574 15.0119C14.6367 14.9321 14.6952 14.8491 14.7493 14.7633C14.828 14.6366 14.8527 14.5066 14.8113 14.4059C14.6247 13.9499 14.4313 13.4959 14.2327 13.0453C14.1933 12.9559 14.0767 12.8919 13.9707 12.8793C13.9347 12.8753 13.8987 12.8713 13.8627 12.8686C13.7731 12.8641 13.6834 12.865 13.594 12.8713V12.8719Z" fill="#25D366"/>
</svg>